<svg width="40" height="40" viewBox="0 0 40 40" fill="none" xmlns="http://www.w3.org/2000/svg">
<path d="M20 0C8.9536 0 0 8.9536 0 20C0 31.0464 8.9536 40 20 40C31.0464 40 40 31.0464 40 20C40 8.9536 31.0464 0 20 0ZM30.4 21.6H21.6V30.4C21.6 30.8243 21.4314 31.2313 21.1314 31.5314C20.8313 31.8314 20.4243 32 20 32C19.5757 32 19.1687 31.8314 18.8686 31.5314C18.5686 31.2313 18.4 30.8243 18.4 30.4V21.6H9.6C9.17565 21.6 8.76869 21.4314 8.46863 21.1314C8.16857 20.8313 8 20.4243 8 20C8 19.5757 8.16857 19.1687 8.46863 18.8686C8.76869 18.5686 9.17565 18.4 9.6 18.4H18.4V9.6C18.4 9.17565 18.5686 8.76869 18.8686 8.46863C19.1687 8.16857 19.5757 8 20 8C20.4243 8 20.8313 8.16857 21.1314 8.46863C21.4314 8.76869 21.6 9.17565 21.6 9.6V18.4H30.4C30.8243 18.4 31.2313 18.5686 31.5314 18.8686C31.8314 19.1687 32 19.5757 32 20C32 20.4243 31.8314 20.8313 31.5314 21.1314C31.2313 21.4314 30.8243 21.6 30.4 21.6Z" fill="#1A1818"/>
</svg>
