<svg width="26" height="26" viewBox="0 0 26 26" fill="none" xmlns="http://www.w3.org/2000/svg">
<g clip-path="url(#clip0_41_35)">
<path d="M23.9778 26L14.8778 16.9C14.1556 17.4778 13.3178 17.94 12.3789 18.2722C11.44 18.6044 10.4434 18.7778 9.37448 18.7778C6.7456 18.7778 4.5356 17.8678 2.7156 16.0478C0.895596 14.2278 -0.0144043 12.0033 -0.0144043 9.38889C-0.0144043 6.77444 0.91004 4.55 2.73004 2.73C4.55004 0.91 6.76004 0 9.38893 0C12.0178 0 14.2278 0.91 16.0478 2.73C17.8678 4.55 18.7778 6.77444 18.7778 9.38889C18.7778 10.4433 18.6045 11.4544 18.2723 12.3933C17.94 13.3322 17.4778 14.17 16.9 14.8922L26 23.9922L23.9778 26.0144V26ZM9.38893 15.8889C11.1945 15.8889 12.7256 15.2533 13.9967 13.9967C15.2678 12.74 15.8889 11.1944 15.8889 9.38889C15.8889 7.58333 15.2534 6.05222 13.9967 4.78111C12.74 3.51 11.1945 2.88889 9.38893 2.88889C7.58337 2.88889 6.05226 3.52444 4.78115 4.78111C3.51004 6.03778 2.88893 7.58333 2.88893 9.38889C2.88893 11.1944 3.52448 12.7256 4.78115 13.9967C6.03782 15.2678 7.58337 15.8889 9.38893 15.8889Z" fill="#8C8C8C"/>
</g>
<defs>
<clipPath id="clip0_41_35">
<rect width="26" height="26" fill="white"/>
</clipPath>
</defs>
</svg>
